<?xml version="1.0" standalone="yes"?>

<svg version="1.1" viewBox="0.0 0.0 200.0 200.0" fill="none" stroke="none" stroke-linecap="square" stroke-miterlimit="10" xmlns="http://www.w3.org/2000/svg" xmlns:xlink="http://www.w3.org/1999/xlink"><clipPath id="p.0"><path d="m0 0l200.0 0l0 200.0l-200.0 0l0 -200.0z" clip-rule="nonzero"></path></clipPath><g clip-path="url(#p.0)"><path fill="#000000" fill-opacity="0.0" d="m0 0l200.0 0l0 200.0l-200.0 0z" fill-rule="nonzero"></path><path fill="#000000" fill-opacity="0.0" d="m-2.187183 25.19685l180.47244 0l0 125.98425l-180.47244 0z" fill-rule="nonzero"></path><path fill="#ffc107" d="m43.031567 85.79435q-2.4375 6.46875 -5.34375 13.5q-2.90625 7.03125 -6.28125 13.125q-2.0625 3.75 -4.59375 6.234375q-2.53125 2.484375 -5.8125 2.484375q-2.625 0 -5.109375 -2.671875q-2.484375 -2.671875 -4.59375 -6.375q-2.109375 -3.703125 -3.6562495 -7.5q-1.546875 -3.796875 -2.296875 -6.046875q-0.75 -2.53125 -1.6875 -5.4375q-0.9375 -2.90625 -1.6875001 -5.90625q-0.75 -3.0 -1.21875 -5.953125q-0.46875 -2.953125 -0.46875 -5.578125q0 -3.65625 1.3125 -6.0q1.3125001 -2.34375 5.15625 -2.34375q1.4999995 0 2.7187495 0.890625q1.21875 0.890625 2.25 2.484375q1.03125 1.59375 1.96875 3.703125q0.9375 2.109375 1.78125 4.640625q0.84375 2.4375 1.59375 5.0625q0.75 2.625 1.5 5.0625q0.75 2.4375 1.546875 4.734375q0.796875 2.296875 2.109375 4.546875q0.65625 -1.6875 1.5 -3.84375q0.84375 -2.15625 1.828125 -4.59375q0.984375 -2.4375 2.109375 -5.015625q1.125 -2.578125 2.4375 -5.015625q2.53125 -5.0625 5.390625 -8.625q2.859375 -3.5625 5.671875 -3.5625q2.625 0 3.75 1.59375q1.125 1.59375 1.125 4.125q0 2.53125 -0.84375 5.71875q-0.84375 3.1875 -2.15625 6.5625zm24.093754 36.28125q-4.781254 0 -8.343754 -2.53125q-3.5625 -2.53125 -6.0 -6.46875q-2.4375 -3.9375 -3.65625 -8.765625q-1.21875 -4.828125 -1.21875 -9.515625q0 -4.96875 1.21875 -10.265625q1.21875 -5.296875 3.75 -9.65625q2.53125 -4.359375 6.46875 -7.125q3.9375 -2.765625 9.375004 -2.765625q5.25 0 8.953125 2.859375q3.703125 2.859375 5.953125 7.125q2.25 4.265625 3.1875 9.328125q0.9375 5.0625 0.65625 9.5625q-0.28125 4.96875 -1.546875 10.03125q-1.265625 5.0625 -3.703125 9.09375q-2.4375 4.03125 -6.1875 6.5625q-3.75 2.53125 -8.90625 2.53125zm0.9375 -42.375q-1.40625 0 -2.484375 1.5q-1.078125 1.5 -1.7812538 3.65625q-0.703125 2.15625 -1.078125 4.546875q-0.375 2.390625 -0.375 4.171875q0 2.25 0.421875 4.875q0.421875 2.625 1.171875 4.828125q0.7500038 2.203125 1.8281288 3.65625q1.078125 1.453125 2.484375 1.453125q1.5 0 2.578125 -1.40625q1.078125 -1.40625 1.734375 -3.5625q0.65625 -2.15625 0.9375 -4.734375q0.28125 -2.578125 0.28125 -4.828125q0 -2.0625 -0.375 -4.546875q-0.375 -2.484375 -1.078125 -4.640625q-0.703125 -2.15625 -1.78125 -3.5625q-1.078125 -1.40625 -2.484375 -1.40625zm63.75 -8.71875q0 1.5 -0.5625 3.140625q-0.5625 1.640625 -1.40625 3.328125q-0.84375 1.6875 -1.78125 3.234375q-0.9375 1.546875 -1.6875 2.859375q-1.875 3.0 -3.703125 6.09375q-1.828125 3.09375 -3.703125 6.09375q0.84375 1.3125 2.34375 3.65625q1.5 2.34375 2.953125 4.921875q1.453125 2.578125 2.484375 5.109375q1.03125 2.53125 1.03125 4.3125q0 1.6875 -1.3125 3.28125q-1.3125 1.59375 -3.1875 1.59375q-1.96875 0 -3.984375 -1.40625q-2.015625 -1.40625 -3.9375 -3.328125q-1.921875 -1.921875 -3.515625 -4.03125q-1.59375 -2.109375 -2.71875 -3.515625q-1.21875 1.3125 -3.140625 3.5625q-1.921875 2.25 -4.125 4.40625q-2.203125 2.15625 -4.359375 3.703125q-2.15625 1.546875 -3.84375 1.546875q-1.96875 0 -3.09375 -1.40625q-1.125 -1.40625 -1.125 -3.28125q0 -1.875 1.265625 -4.78125q1.265625 -2.90625 3.0 -6.0q1.734375 -3.09375 3.46875 -5.90625q1.734375 -2.8125 2.671875 -4.40625q-0.9375 -1.6875 -2.34375 -4.453125q-1.40625 -2.765625 -2.671875 -5.8125q-1.265625 -3.046875 -2.15625 -6.0q-0.890625 -2.953125 -0.890625 -4.921875q0 -2.15625 1.3125 -3.46875q1.3125 -1.3125 3.46875 -1.3125q2.34375 0 4.40625 1.828125q2.0625 1.828125 3.84375 4.40625q1.78125 2.578125 3.140625 5.34375q1.359375 2.765625 2.203125 4.546875q1.125 -1.6875 3.140625 -4.59375q2.015625 -2.90625 4.546875 -5.71875q2.53125 -2.8125 5.25 -4.875q2.71875 -2.0625 5.15625 -2.0625q1.59375 0 2.578125 1.359375q0.984375 1.359375 0.984375 2.953125z" fill-rule="nonzero"></path><path fill="#000000" fill-opacity="0.0" d="m7.3210597 73.15046l194.86615 0l0 90.803154l-194.86615 0z" fill-rule="nonzero"></path><path fill="#9c27b0" d="m38.13356 114.215454q-1.625 4.3125 -3.5625 9.0q-1.9375 4.6875 -4.1875 8.75q-1.375 2.5 -3.0625 4.15625q-1.6875 1.65625 -3.875 1.65625q-1.75 0 -3.40625 -1.78125q-1.65625 -1.78125 -3.0625 -4.25q-1.406251 -2.46875 -2.437501 -5.0q-1.03125 -2.53125 -1.53125 -4.03125q-0.5 -1.6875 -1.125 -3.625q-0.625 -1.9375 -1.125 -3.9375q-0.5 -2.0 -0.8125 -3.96875q-0.3125 -1.96875 -0.3125 -3.71875q0 -2.4375 0.875 -4.0q0.875 -1.5625 3.4375 -1.5625q1.0 0 1.8125 0.59375q0.81250095 0.59375 1.500001 1.65625q0.6875 1.0625 1.3125 2.46875q0.625 1.40625 1.1875 3.09375q0.5625 1.625 1.0625 3.375q0.5 1.75 1.0 3.375q0.5 1.625 1.03125 3.15625q0.53125 1.53125 1.40625 3.03125q0.4375 -1.125 1.0 -2.5625q0.5625 -1.4375 1.21875 -3.0625q0.65625 -1.625 1.40625 -3.34375q0.75 -1.71875 1.625 -3.34375q1.6875 -3.375 3.59375 -5.75q1.90625 -2.375 3.78125 -2.375q1.75 0 2.5 1.0625q0.75 1.0625 0.75 2.75q0 1.6875 -0.5625 3.8125q-0.5625 2.125 -1.4375 4.375zm30.75 13.5625q0 1.125 -0.09375 2.9375q-0.09375 1.8125 -0.53125 3.53125q-0.4375 1.71875 -1.375 2.96875q-0.9375 1.25 -2.625 1.25q-2.3125 0 -3.5625 -1.5q-1.25 -1.5 -1.1875 -3.75q-2.0 1.75 -4.53125 2.75q-2.53125 1.0 -5.15625 1.0q-1.8125 0 -3.4375 -0.875q-1.625 -0.875 -2.875 -2.25q-1.25 -1.375 -2.0 -3.09375q-0.75 -1.71875 -0.75 -3.40625q0 -3.0 1.84375 -5.25q1.84375 -2.25 4.53125 -3.84375q2.6875 -1.59375 5.71875 -2.53125q3.03125 -0.9375 5.40625 -1.25q0 -0.3125 0.03125 -0.5625q0.03125 -0.25 0.03125 -0.5625q0 -1.9375 -1.0625 -3.125q-1.0625 -1.1875 -3.0 -1.1875q-1.5625 0 -2.6875 0.53125q-1.125 0.53125 -2.125 1.1875q-1.0 0.65625 -2.0 1.1875q-1.0 0.53125 -2.25 0.53125q-1.375 0 -2.34375 -0.875q-0.96875 -0.875 -0.96875 -2.25q0 -2.0625 1.21875 -3.75q1.21875 -1.6875 3.0625 -2.84375q1.84375 -1.15625 4.0 -1.8125q2.15625 -0.65625 3.96875 -0.65625q1.6875 0 3.375 0.40625q1.6875 0.40625 3.1875 1.25q1.5 0.84375 2.71875 2.0625q1.21875 1.21875 1.96875 2.84375q1.125 2.3125 1.8125 4.90625q0.6875 2.59375 1.0625 5.3125q0.375 2.71875 0.5 5.4375q0.125 2.71875 0.125 5.28125zm-10.0 -2.0l-0.1875 -4.25q-0.125 0 -0.25 -0.03125q-0.125 -0.03125 -0.25 -0.03125q-0.8125 0 -2.03125 0.40625q-1.21875 0.40625 -2.34375 1.125q-1.125 0.71875 -1.90625 1.59375q-0.78125 0.875 -0.78125 1.8125q0 0.875 0.625 1.1875q0.625 0.3125 1.4375 0.3125q1.375 0 2.9375 -0.71875q1.5625 -0.71875 2.75 -1.40625zm35.4375 -12.5625q-0.875 0.0625 -1.5 -0.15625q-0.625 -0.21875 -1.25 -0.46875q-0.5625 -0.25 -1.125 -0.46875q-0.5625 -0.21875 -1.25 -0.15625q-1.25 0.0625 -2.21875 0.6875q-0.96875 0.625 -1.75 1.5625q-0.78125 0.9375 -1.34375 2.09375q-0.5625 1.15625 -0.875 2.28125q-0.1875 0.75 -0.28125 2.28125q-0.09375 1.53125 -0.09375 3.28125q-0.0625 1.8125 -0.0625 3.4375q0 1.625 -0.125 2.5625q-0.0625 1.0 -0.3125 2.34375q-0.25 1.34375 -0.78125 2.53125q-0.53125 1.1875 -1.40625 2.0q-0.875 0.8125 -2.25 0.8125q-1.0625 0 -1.84375 -0.625q-0.78125 -0.625 -1.3125 -1.65625q-0.53125 -1.03125 -0.875 -2.40625q-0.34375 -1.375 -0.53125 -2.8125q-0.1875 -1.5 -0.28125 -3.0q-0.09375 -1.5 -0.125 -2.84375q-0.03125 -1.34375 0 -2.46875q0.03125 -1.125 0.03125 -1.8125q-0.0625 -2.1875 -0.21875 -4.40625q-0.15625 -2.21875 -0.15625 -4.40625q0 -1.375 0.125 -3.0625q0.125 -1.6875 0.6875 -3.15625q0.5625 -1.46875 1.65625 -2.46875q1.09375 -1.0 3.03125 -1.0q1.0625 0 1.8125 0.6875q0.75 0.6875 1.21875 1.6875q0.46875 1.0 0.71875 2.125q0.25 1.125 0.3125 2.0625q1.5 -2.4375 3.375 -3.96875q1.875 -1.53125 4.875 -1.65625q1.5 -0.0625 2.96875 0.28125q1.46875 0.34375 2.6875 1.125q1.21875 0.78125 2.0 2.03125q0.78125 1.25 0.84375 2.9375q0.125 2.0 -1.1875 3.0625q-1.3125 1.0625 -3.1875 1.125zm15.625 -20.25q0 0.875 -0.46875 1.5625q-0.46875 0.6875 -1.21875 1.21875q-0.75 0.53125 -1.625 0.8125q-0.875 0.28125 -1.625 0.28125q-1.25 0 -2.1875 -0.625q-0.9375 -0.625 -0.9375 -1.9375q0 -0.9375 0.46875 -1.65625q0.46875 -0.71875 1.15625 -1.1875q0.6875 -0.46875 1.5625 -0.71875q0.875 -0.25 1.6875 -0.25q1.1875 0 2.1875 0.5625q1.0 0.5625 1.0 1.9375zm0.5 21.25q0 0.875 0 1.84375q0 0.96875 -0.0625 1.84375q-0.0625 1.0625 -0.0625 2.84375q0 1.78125 -0.125 3.84375q-0.125 2.0625 -0.40625 4.1875q-0.28125 2.125 -0.90625 3.875q-0.625 1.75 -1.65625 2.84375q-1.03125 1.09375 -2.59375 1.15625q-1.1875 0.0625 -2.0 -0.9375q-0.8125 -1.0 -1.34375 -2.59375q-0.53125 -1.59375 -0.78125 -3.5625q-0.25 -1.96875 -0.375 -3.8125q-0.125 -1.84375 -0.125 -3.40625q0 -1.5625 0 -2.3125q0 -1.0 0 -2.84375q0 -1.84375 0.125 -3.96875q0.125 -2.125 0.46875 -4.3125q0.34375 -2.1875 1.0 -4.0q0.65625 -1.8125 1.71875 -2.9375q1.0625 -1.125 2.6875 -1.125q1.6875 0 2.5625 1.6875q0.875 1.6875 1.3125 3.9375q0.4375 2.25 0.5 4.46875q0.0625 2.21875 0.0625 3.28125zm30.625 11.25q0 2.125 -1.34375 4.15625q-1.34375 2.03125 -3.375 3.625q-2.03125 1.59375 -4.34375 2.5625q-2.3125 0.96875 -4.25 0.96875q-3.3125 0 -5.90625 -1.65625q-2.59375 -1.65625 -4.34375 -4.21875q-1.75 -2.5625 -2.65625 -5.65625q-0.90625 -3.09375 -0.90625 -6.03125q0 -3.125 0.875 -6.6875q0.875 -3.5625 2.65625 -6.5625q1.78125 -3.0 4.5 -5.0q2.71875 -2.0 6.46875 -2.0q2.125 0 4.0625 0.71875q1.9375 0.71875 3.375 2.03125q1.4375 1.3125 2.3125 3.125q0.875 1.8125 0.875 4.0625q0 2.9375 -1.25 5.5q-1.25 2.5625 -3.3125 4.4375q-2.0625 1.875 -4.75 3.03125q-2.6875 1.15625 -5.5 1.28125q0.25 1.8125 1.46875 2.625q1.21875 0.8125 2.90625 0.8125q1.25 0 2.4375 -0.625q1.1875 -0.625 2.3125 -1.40625q1.125 -0.78125 2.21875 -1.40625q1.09375 -0.625 2.21875 -0.625q1.25 0 2.25 0.8125q1.0 0.8125 1.0 2.125zm-10.125 -15.3125q0 -0.8125 -0.4375 -1.6875q-0.4375 -0.875 -1.375 -0.875q-1.375 0 -2.3125 0.71875q-0.9375 0.71875 -1.5625 1.8125q-0.625 1.09375 -0.96875 2.34375q-0.34375 1.25 -0.40625 2.3125q0.875 -0.1875 2.09375 -0.5q1.21875 -0.3125 2.3125 -0.84375q1.09375 -0.53125 1.875 -1.34375q0.78125 -0.8125 0.78125 -1.9375zm27.1875 28.6875q-4.4375 0 -6.90625 -1.15625q-2.46875 -1.15625 -3.6875 -3.28125q-1.21875 -2.125 -1.46875 -5.125q-0.25 -3.0 -0.25 -6.6875q0 -2.9375 0.1875 -5.90625q0.1875 -2.96875 0.5625 -6.34375q-0.875 0 -1.375 0.03125q-0.5 0.03125 -0.8125 0.03125q-2.0 0 -3.46875 -0.875q-1.46875 -0.875 -1.46875 -2.6875q0 -1.125 0.84375 -2.0q0.84375 -0.875 2.15625 -1.5q1.3125 -0.625 2.84375 -1.0q1.53125 -0.375 2.90625 -0.5q0 -1.75 0.25 -3.875q0.25 -2.125 0.90625 -3.96875q0.65625 -1.84375 1.78125 -3.09375q1.125 -1.25 2.875 -1.25q1.0 0 1.78125 0.59375q0.78125 0.59375 1.28125 1.5q0.5 0.90625 0.75 2.03125q0.25 1.125 0.25 2.1875q0 1.25 -0.1875 2.5625q-0.1875 1.3125 -0.6875 3.25q1.0625 -0.125 1.4375 -0.15625q0.375 -0.03125 0.6875 -0.03125q1.0625 0 2.21875 0.1875q1.15625 0.1875 2.125 0.625q0.96875 0.4375 1.59375 1.15625q0.625 0.71875 0.625 1.71875q0 1.125 -0.90625 2.0q-0.90625 0.875 -2.28125 1.5q-1.375 0.625 -2.9375 0.96875q-1.5625 0.34375 -2.9375 0.46875q-0.375 2.5625 -0.53125 4.71875q-0.15625 2.15625 -0.34375 4.34375q-0.125 1.0625 -0.21875 2.15625q-0.09375 1.09375 -0.09375 2.21875q0 0.8125 0.0625 1.90625q0.0625 1.09375 0.4375 2.09375q0.375 1.0 1.1875 1.71875q0.8125 0.71875 2.25 0.71875q0.875 0 1.8125 -0.15625q0.9375 -0.15625 1.875 -0.15625q1.625 0 2.34375 1.125q0.71875 1.125 0.71875 2.875q0 1.3125 -0.78125 2.28125q-0.78125 0.96875 -1.96875 1.5625q-1.1875 0.59375 -2.65625 0.90625q-1.46875 0.3125 -2.78125 0.3125zm23.0 15.9375q-1.5 0 -3.40625 -0.46875q-1.90625 -0.46875 -3.59375 -1.34375q-1.6875 -0.875 -2.84375 -2.125q-1.15625 -1.25 -1.15625 -2.875q0 -0.625 0.3125 -1.25q0.3125 -0.625 0.84375 -1.09375q0.53125 -0.46875 1.15625 -0.75q0.625 -0.28125 1.3125 -0.28125q0.75 0 1.46875 0.21875q0.71875 0.21875 1.46875 0.53125q0.8125 0.3125 1.59375 0.5625q0.78125 0.25 1.65625 0.25q1.5625 0 2.71875 -1.0625q1.15625 -1.0625 1.96875 -2.78125q0.8125 -1.71875 1.3125 -3.8125q0.5 -2.09375 0.78125 -4.15625q0.28125 -2.0625 0.40625 -3.875q0.125 -1.8125 0.1875 -2.9375q-2.1875 3.3125 -4.34375 5.09375q-2.15625 1.78125 -5.28125 1.78125q-2.375 0 -4.15625 -1.0q-1.78125 -1.0 -3.03125 -2.625q-1.25 -1.625 -2.0625 -3.71875q-0.8125 -2.09375 -1.21875 -4.34375q-0.40625 -2.25 -0.53125 -4.40625q-0.125 -2.15625 0 -3.96875q0.0625 -1.375 0.34375 -3.59375q0.28125 -2.21875 0.90625 -4.34375q0.625 -2.125 1.75 -3.59375q1.125 -1.46875 2.9375 -1.34375q1.1875 0.0625 1.9375 1.03125q0.75 0.96875 1.21875 2.40625q0.46875 1.4375 0.6875 3.15625q0.21875 1.71875 0.28125 3.40625q0.0625 1.6875 0.03125 3.09375q-0.03125 1.40625 -0.03125 2.15625q0 1.0625 0.0625 2.125q0.0625 1.0625 0.4375 1.90625q0.375 0.84375 1.15625 1.34375q0.78125 0.5 2.21875 0.5q1.625 0 2.59375 -0.8125q0.96875 -0.8125 1.4375 -2.03125q0.46875 -1.21875 0.59375 -2.625q0.125 -1.40625 0.125 -2.65625q0 -0.875 0 -2.125q0 -1.25 0.03125 -2.625q0.03125 -1.375 0.25 -2.71875q0.21875 -1.34375 0.6875 -2.4375q0.46875 -1.09375 1.25 -1.78125q0.78125 -0.6875 2.03125 -0.6875q1.5625 0 2.6875 1.21875q1.125 1.21875 1.90625 3.1875q0.78125 1.96875 1.25 4.34375q0.46875 2.375 0.71875 4.71875q0.25 2.34375 0.34375 4.3125q0.09375 1.96875 0.09375 3.09375q0 2.625 -0.1875 5.96875q-0.1875 3.34375 -0.71875 6.875q-0.53125 3.53125 -1.59375 6.9375q-1.0625 3.40625 -2.78125 6.09375q-1.71875 2.6875 -4.21875 4.3125q-2.5 1.625 -6.0 1.625z" fill-rule="nonzero"></path></g></svg>

